<svg width="1440" height="745" viewBox="0 0 1440 745" fill="none" xmlns="http://www.w3.org/2000/svg">
<rect width="100" height="100" transform="matrix(1 0 0 -1 0 100)" fill="#002529"/>
<path fill-rule="evenodd" clip-rule="evenodd" d="M47 56H147V60H47V56ZM47 64H147V68H47V64ZM147 72H47V76H147V72ZM47 80H147V84H47V80ZM147 88H47V92H147V88ZM47 96H147V100H47V96Z" fill="#79C8C7"/>
<path fill-rule="evenodd" clip-rule="evenodd" d="M1340 845C1284.77 845 1240 800.228 1240 745C1240 689.772 1284.77 645 1340 645C1395.23 645 1440 689.772 1440 745C1440 800.228 1395.23 845 1340 845ZM1340 778C1321.77 778 1307 763.225 1307 745C1307 726.775 1321.77 712 1340 712C1358.23 712 1373 726.775 1373 745C1373 763.225 1358.23 778 1340 778Z" fill="#012F34"/>
</svg>
