<svg width="204" height="100" viewBox="0 0 204 100" fill="none" xmlns="http://www.w3.org/2000/svg">
<g filter="url(#filter0_dd_8236_3)">
<path fill-rule="evenodd" clip-rule="evenodd" d="M104 200C48.7715 200 4 155.228 4 100C4 44.7715 48.7715 0 104 0C159.228 0 204 44.7715 204 100C204 155.228 159.228 200 104 200ZM104 133C85.7746 133 71 118.225 71 100C71 81.7746 85.7746 67 104 67C122.225 67 137 81.7746 137 100C137 118.225 122.225 133 104 133Z" fill="#012F34"/>
</g>
<path fill-rule="evenodd" clip-rule="evenodd" d="M104 56H204V60H104V56ZM104 64H204V68H104V64ZM204 72H104V76H204V72ZM104 80H204V84H104V80ZM204 88H104V92H204V88ZM104 96H204V100H104V96Z" fill="#79C8C7"/>
<defs>
<filter id="filter0_dd_8236_3" x="0" y="0" width="208" height="208" filterUnits="userSpaceOnUse" color-interpolation-filters="sRGB">
<feFlood flood-opacity="0" result="BackgroundImageFix"/>
<feColorMatrix in="SourceAlpha" type="matrix" values="0 0 0 0 0 0 0 0 0 0 0 0 0 0 0 0 0 0 127 0" result="hardAlpha"/>
<feOffset dy="4"/>
<feGaussianBlur stdDeviation="2"/>
<feComposite in2="hardAlpha" operator="out"/>
<feColorMatrix type="matrix" values="0 0 0 0 0 0 0 0 0 0 0 0 0 0 0 0 0 0 0.25 0"/>
<feBlend mode="normal" in2="BackgroundImageFix" result="effect1_dropShadow_8236_3"/>
<feColorMatrix in="SourceAlpha" type="matrix" values="0 0 0 0 0 0 0 0 0 0 0 0 0 0 0 0 0 0 127 0" result="hardAlpha"/>
<feOffset dy="4"/>
<feGaussianBlur stdDeviation="2"/>
<feComposite in2="hardAlpha" operator="out"/>
<feColorMatrix type="matrix" values="0 0 0 0 0 0 0 0 0 0 0 0 0 0 0 0 0 0 0.25 0"/>
<feBlend mode="normal" in2="effect1_dropShadow_8236_3" result="effect2_dropShadow_8236_3"/>
<feBlend mode="normal" in="SourceGraphic" in2="effect2_dropShadow_8236_3" result="shape"/>
</filter>
</defs>
</svg>
